<svg width="80" height="80" viewBox="0 0 80 80" fill="none" xmlns="http://www.w3.org/2000/svg">
<path d="M33.2777 1.20444C34.9072 1.23812 36.5318 1.44761 38.1508 1.5521C40.4078 1.82247 42.679 1.80628 44.936 1.78647C46.9178 1.76908 48.8884 1.74902 50.8451 1.91343L51.683 1.99546C53.7818 2.29707 56.0561 3.01857 57.0658 4.86264L57.0717 4.87143C58.191 6.68531 59.2597 8.55265 59.7211 10.5804C59.4665 11.8929 58.9784 13.1387 58.4184 14.3744C57.8591 15.6084 57.2196 16.8535 56.6977 18.1136C55.8533 19.8119 55.2567 21.5919 54.685 23.3666C54.1119 25.1453 53.5639 26.9168 52.8149 28.6205L52.7279 28.8177L52.932 28.89C53.6446 29.1415 54.4033 29.3669 55.1518 29.6039C55.9037 29.8419 56.6501 30.0934 57.3539 30.3998C58.7615 31.0125 59.9799 31.8379 60.7123 33.1957L60.7182 33.2074L60.726 33.2181C61.7774 34.6708 62.5576 36.5084 62.7524 38.3412C62.9468 40.1715 62.5573 41.9851 61.2856 43.4183L61.2797 43.4242L61.2748 43.431C56.7485 49.4965 51.4666 55.0207 46.3822 60.7074C41.3591 66.3256 36.5348 72.0978 32.8588 78.68C31.8375 77.7232 30.7895 76.7918 29.7455 75.8607C28.6388 74.8736 27.5364 73.8853 26.4721 72.8578C25.6347 71.9569 25.4954 70.8904 25.6264 69.7533C25.6922 69.1825 25.8251 68.5997 25.9701 68.0169C26.0781 67.5831 26.1934 67.1465 26.2885 66.721L26.3764 66.2992C28.6341 58.0406 30.3174 49.6718 32.9174 41.5316L33.1 40.9603L32.6108 41.307C31.6009 42.0249 30.4834 42.5665 29.2582 42.7982L29.2553 42.7992C28.1245 43.0319 27.0285 43.3811 25.9447 43.724C24.8786 44.0612 23.8235 44.3916 22.7397 44.6117C21.9502 44.2334 21.3938 43.5994 20.8979 42.8685C20.6433 42.4933 20.4091 42.0996 20.1654 41.7035C19.984 41.4085 19.798 41.1133 19.5981 40.8314L19.393 40.5541C17.8859 38.5702 16.5794 36.0964 17.5141 33.7132L17.517 33.7074C18.3678 31.3012 19.3884 28.957 20.4184 26.6078C21.4475 24.2606 22.4865 21.9077 23.3676 19.4945L23.3715 19.4818C25.0738 13.5906 26.5048 7.60213 28.6547 1.87241C30.1293 1.30893 31.6875 1.17157 33.2777 1.20444ZM30.5326 4.89194C28.7601 9.98707 26.9348 15.0566 25.2436 20.1722C24.375 22.7642 23.3389 25.3047 22.3647 27.8802C21.3921 30.4514 20.4841 33.0512 19.8842 35.7416L19.8236 36.014L20.102 35.9837C22.9099 35.6733 25.7293 35.0583 28.5229 34.5921C31.2709 34.1335 34.01 33.8156 36.7553 34.0482C36.8718 35.2228 36.5944 36.3519 36.2084 37.4916C35.8108 38.6654 35.2888 39.8752 35.0199 41.1009C32.6647 49.81 31.0371 58.7007 29.1 67.4896L28.9047 68.3763L29.4545 67.6546C38.2523 56.0972 47.6313 44.9832 57.0463 33.8812L57.2289 33.6654L56.9643 33.5648C54.661 32.6903 52.3485 31.7881 49.9789 31.0423L48.9604 30.7328C48.151 30.469 47.3054 30.2127 46.558 29.8314C45.8128 29.4512 45.1851 28.9558 44.8051 28.2279L44.8002 28.2181L44.7943 28.2093L44.6625 27.9945C44.0542 26.9174 44.2114 25.808 44.6488 24.6654C44.8828 24.0544 45.193 23.445 45.5014 22.8333C45.8076 22.226 46.1115 21.6145 46.3236 21.0169C47.3388 18.4874 48.5497 16.0395 49.7953 13.597C51.041 11.1543 52.3238 8.71429 53.4779 6.21616L53.5971 5.95835L53.3149 5.93296C51.183 5.74145 49.0486 5.72963 46.9223 5.74155C44.7948 5.75347 42.6775 5.78942 40.5639 5.69468C38.9275 5.57589 37.2958 5.39013 35.6576 5.20932C34.021 5.02869 32.3795 4.85281 30.7328 4.75718L30.5815 4.74839L30.5326 4.89194ZM34.0619 36.7796C31.8841 37.2319 29.6975 37.6487 27.5111 38.0677C25.3255 38.4866 23.1397 38.9075 20.9662 39.3685L20.6586 39.4339L20.849 39.6849C21.4622 40.4947 22.0757 41.3064 22.7065 42.1175L22.7944 42.2298L22.9291 42.1839C26.2225 41.0524 29.5613 39.8318 33.058 40.1292L33.2123 40.1419L33.2631 39.9964C33.4374 39.5033 33.6079 39.0101 33.7777 38.5179C33.9477 38.0255 34.1177 37.5338 34.2914 37.0423L34.4096 36.7074L34.0619 36.7796Z" fill="#B8141B"/>
</svg>
