<svg width="80" height="80" viewBox="0 0 80 80" fill="none" xmlns="http://www.w3.org/2000/svg">
<path d="M34.5256 1.21631C45.819 -0.252525 57.7115 3.4331 66.0334 11.4292L66.7024 12.0747C73.5345 18.832 77.8441 28.3013 78.0754 38.0415C78.3838 46.6924 75.7913 55.4009 70.843 62.4077L70.842 62.4067C65.8853 69.8587 58.2987 75.4468 49.7737 77.8042L48.9455 78.022C36.4108 81.2114 22.3639 77.1929 13.3625 67.7104C1.72922 56.0844 -1.57852 36.6127 5.89281 21.7837C11.2338 10.8161 22.041 2.80752 33.9875 1.29053L34.5256 1.21631ZM25.9153 7.46338C18.1512 10.7829 11.3417 16.7612 7.76488 24.6079V24.6099C3.49871 33.5271 3.20514 44.2523 6.88598 53.4263L6.88696 53.4282C11.7529 66.2998 24.4278 75.6015 37.9485 76.0708H37.9504C51.0248 76.6962 63.9647 69.0449 70.2952 57.4097L70.2961 57.4087C76.0001 47.08 76.7223 33.6529 70.9387 23.2036L70.9377 23.2017C67.7601 17.1415 62.6772 12.3221 56.8547 8.96729C56.9161 11.0861 56.3665 13.3869 54.6164 14.7329C53.9342 15.2512 53.1563 15.3783 52.3733 15.3384C51.6385 15.3009 50.8872 15.1149 50.1995 14.9634C50.2411 15.9085 50.1488 16.9531 49.8069 17.8677C49.4486 18.826 48.8163 19.6479 47.7834 20.0532L47.7747 20.0562L47.7659 20.0581C46.2851 20.3571 44.9444 19.9062 43.758 19.1343C42.6779 18.4315 41.7198 17.4578 40.8909 16.5288C41.4157 19.4129 41.4294 22.8431 39.1946 25.0591L39.1955 25.0601C38.7301 25.6026 38.0979 25.7809 37.468 25.7271C36.8407 25.6733 36.2103 25.39 35.7288 25.0015C33.2513 23.2248 32.278 20.1566 31.5852 17.3159C30.9154 18.8604 30.1596 20.5302 29.1663 21.979C28.1143 23.5133 26.7924 24.8086 25.0178 25.4458L24.9807 25.4585L24.9455 25.4438C24.0234 25.0587 23.4841 24.2924 23.1584 23.4175C22.8335 22.5444 22.7167 21.5523 22.6467 20.6958V20.6899C22.5086 16.0386 24.4069 11.717 25.9153 7.46338ZM22.6438 58.1089C24.3882 60.3513 24.4263 63.4124 24.4123 66.0874L24.4075 67.0229L24.2151 66.1069C23.6549 63.4496 23.1948 60.8036 22.469 58.1978L22.3323 57.7085L22.6438 58.1089ZM16.4065 54.5415C17.9859 56.4836 18.8863 58.8823 19.4055 61.3159L19.4993 61.7583L19.2278 61.397C17.7376 59.418 16.6392 57.1066 16.2307 54.6206L16.1692 54.2495L16.4065 54.5415ZM13.2268 49.7964C13.2687 52.4873 13.5342 55.1712 14.4377 57.7095L14.6096 58.1919L14.2688 57.8091C12.314 55.6127 11.7743 52.4604 13.0364 49.7554L13.22 49.3618L13.2268 49.7964ZM10.7102 45.1675C10.8645 46.8276 10.8401 48.4993 10.8489 50.1616C10.8576 51.8261 10.8998 53.4839 11.1848 55.1294L11.2639 55.5864L11.0032 55.2026C8.99361 52.2431 9.08297 48.2965 10.5198 45.1353L10.675 44.7925L10.7102 45.1675ZM47.9856 32.8687C48.7469 32.7697 49.3362 33.1695 49.8039 33.7105C50.0371 33.9801 50.2448 34.2896 50.4319 34.5991L50.9377 35.4858L50.9485 35.5054L50.9504 35.5278C51.1488 38.3604 49.6757 41.066 48.0364 43.2388C46.5995 45.1932 44.1279 46.7741 41.635 45.9995L41.6301 45.9985C38.1667 44.7387 36.1772 40.7084 36.6858 37.0903L36.6975 37.0103L36.7786 37.0044C36.9889 36.9901 37.3009 36.9724 37.6116 36.9546C37.9226 36.9368 38.2327 36.919 38.4416 36.9048L38.5032 36.8999L38.5344 36.9536C38.7941 37.394 39.0432 37.8706 39.3 38.3394C39.5578 38.8099 39.8258 39.275 40.1282 39.7007C40.7284 40.5457 41.4592 41.2259 42.5051 41.479C43.5128 41.2518 44.3821 40.5344 45.0559 39.7349C45.8546 38.7733 46.0924 37.5458 46.3684 36.3032C46.6423 35.07 46.9544 33.8243 47.9299 32.895L47.9534 32.8726L47.9856 32.8687ZM23.5442 35.0581C26.1498 33.8673 29.6612 35.1405 30.4631 38.0757L30.467 38.0874L30.3674 38.1021L30.4661 38.0884C30.8083 40.4318 29.3824 42.5852 27.7678 44.062C26.7443 45.121 25.0396 44.9754 23.8743 44.3521L23.8664 44.3481C22.3532 43.3651 21.4563 41.5534 21.3411 39.7397C21.2258 37.9249 21.8929 36.0876 23.5325 35.0649L23.5442 35.0581ZM57.0608 26.9849C59.8653 25.7928 63.4101 26.7982 64.8469 29.5981L64.9797 29.8745L64.9875 29.8921L64.9885 29.9116C65.0686 31.8209 64.0582 33.5294 62.927 34.937L62.6995 35.2144C61.6845 36.4176 60.0274 37.3307 58.425 36.8765L58.2707 36.8276C55.8133 36.0112 54.5007 33.3263 54.2883 30.8833L54.2727 30.7134C54.2206 29.8712 54.5364 29.1103 55.0364 28.4839C55.5689 27.8167 56.3137 27.2971 57.0608 26.9849Z" fill="#231815"/>
</svg>
